<?xml version="1.0" encoding="UTF-8"?>
<svg id="Layer_2" data-name="Layer 2" xmlns="http://www.w3.org/2000/svg" xmlns:xlink="http://www.w3.org/1999/xlink" viewBox="0 0 405.34 87.26">
  <defs>
    <style>
      .cls-1 {
        fill: url(#linear-gradient);
      }

      .cls-1, .cls-2, .cls-3, .cls-4, .cls-5, .cls-6, .cls-7, .cls-8, .cls-9, .cls-10, .cls-11 {
        stroke-width: 0px;
      }

      .cls-2 {
        fill: url(#linear-gradient-6);
      }

      .cls-3 {
        fill: #8c8c8c;
      }

      .cls-5 {
        fill: url(#linear-gradient-5);
      }

      .cls-6 {
        fill: #fff;
      }

      .cls-7 {
        fill: url(#linear-gradient-2);
      }

      .cls-8 {
        fill: url(#linear-gradient-7);
      }

      .cls-9 {
        fill: url(#linear-gradient-3);
      }

      .cls-10 {
        fill: url(#linear-gradient-8);
      }

      .cls-11 {
        fill: url(#linear-gradient-4);
      }
    </style>
    <linearGradient id="linear-gradient" x1="29.22" y1="14.37" x2="20.62" y2="5.5" gradientUnits="userSpaceOnUse">
      <stop offset="0" stop-color="#60a5fa"/>
      <stop offset="1" stop-color="#2563eb"/>
    </linearGradient>
    <linearGradient id="linear-gradient-2" x1="7.33" y1="29.85" x2="-1.26" y2="20.98" xlink:href="#linear-gradient"/>
    <linearGradient id="linear-gradient-3" x1="11.65" y1="10.94" x2=".3" y2="-.78" xlink:href="#linear-gradient"/>
    <linearGradient id="linear-gradient-4" x1="7.47" y1="64.93" x2="37.66" y2="55.55" xlink:href="#linear-gradient"/>
    <linearGradient id="linear-gradient-5" x1="29.44" y1="76.51" x2="1.19" y2="48.26" gradientUnits="userSpaceOnUse">
      <stop offset="0" stop-color="#5f94f7"/>
      <stop offset="1" stop-color="#3c5cba"/>
    </linearGradient>
    <linearGradient id="linear-gradient-6" x1="168.43" y1="29.96" x2="197.96" y2="29.96" gradientTransform="translate(240.2) rotate(-180) scale(1 -1)" xlink:href="#linear-gradient"/>
    <linearGradient id="linear-gradient-7" x1="192.77" y1="49.16" x2="164.53" y2="20.91" gradientTransform="translate(240.2) rotate(-180) scale(1 -1)" xlink:href="#linear-gradient-5"/>
    <linearGradient id="linear-gradient-8" x1="207.54" y1="-232.5" x2="351.57" y2="-196.51" gradientTransform="translate(53.71 246.87)" gradientUnits="userSpaceOnUse">
      <stop offset="0" stop-color="#2563eb"/>
      <stop offset="1" stop-color="#60a5fa"/>
    </linearGradient>
  </defs>
  <g id="OBJECTS">
    <g>
      <g>
        <rect class="cls-1" x="21.88" y="6.92" width="6.85" height="6.85" rx=".99" ry=".99"/>
        <rect class="cls-7" y="22.39" width="6.85" height="6.85" rx=".99" ry=".99"/>
        <rect class="cls-9" x="1.97" y="1.09" width="9.05" height="9.05" rx="1.3" ry="1.3"/>
        <path class="cls-11" d="M5.1,57.31l24.92-29.04c1.58-1.84,4.6-.72,4.6,1.7v6.83c0,1.86-.67,3.66-1.88,5.08l-13.23,15.42,13.23,15.42c1.21,1.41,1.88,3.21,1.88,5.08v6.83c0,2.43-3.02,3.55-4.6,1.7L5.1,57.31Z"/>
        <path class="cls-5" d="M5.1,57.31l24.92,29.04c1.58,1.84,4.6.72,4.6-1.7v-6.83c0-1.86-.67-3.66-1.88-5.08l-13.23-15.42H5.1Z"/>
        <path class="cls-2" d="M71.76,29.96L46.84.92c-1.58-1.84-4.6-.72-4.6,1.7v6.83c0,1.86.67,3.66,1.88,5.08l13.23,15.42-13.23,15.42c-1.21,1.41-1.88,3.21-1.88,5.08v6.83c0,2.43,3.02,3.55,4.6,1.7l24.92-29.04Z"/>
        <path class="cls-8" d="M71.76,29.96l-24.92,29.04c-1.58,1.84-4.6.72-4.6-1.7v-6.83c0-1.86.67-3.66,1.88-5.08l13.23-15.42h14.41Z"/>
      </g>
      <g>
        <g>
          <path class="cls-6" d="M101.3,53.03c-3.71,0-7.05-.82-9.99-2.47-2.95-1.64-5.28-4.05-6.99-7.21-1.71-3.16-2.56-7-2.56-11.5s.86-8.4,2.59-11.56c1.73-3.16,4.07-5.56,7.03-7.21,2.96-1.64,6.27-2.47,9.92-2.47,2.46,0,4.73.34,6.82,1.01s3.94,1.66,5.54,2.95c1.61,1.29,2.92,2.88,3.92,4.75,1.01,1.88,1.66,4.02,1.95,6.42h-9.9c-.17-1.02-.47-1.93-.92-2.73-.44-.8-1.01-1.49-1.7-2.07-.69-.57-1.5-1.01-2.43-1.3-.92-.3-1.94-.44-3.05-.44-2.01,0-3.76.5-5.23,1.5s-2.6,2.44-3.38,4.31c-.79,1.88-1.18,4.15-1.18,6.83s.4,5.07,1.21,6.94c.8,1.88,1.93,3.29,3.38,4.23,1.45.94,3.16,1.41,5.14,1.41,1.11,0,2.12-.15,3.05-.44.92-.3,1.74-.73,2.44-1.3.7-.57,1.28-1.26,1.75-2.07.46-.8.78-1.71.94-2.73h9.9c-.19,1.85-.71,3.66-1.58,5.45-.87,1.78-2.08,3.41-3.62,4.88s-3.41,2.64-5.59,3.51c-2.18.87-4.68,1.3-7.49,1.3Z"/>
          <path class="cls-6" d="M143.66,53.03c-3.71,0-7.06-.82-10.02-2.47-2.97-1.64-5.32-4.05-7.06-7.21-1.74-3.16-2.61-7-2.61-11.5s.87-8.4,2.61-11.56c1.74-3.16,4.09-5.56,7.06-7.21,2.97-1.64,6.31-2.47,10.02-2.47s7.03.82,9.99,2.47c2.97,1.65,5.31,4.05,7.04,7.21,1.73,3.16,2.59,7.01,2.59,11.56s-.86,8.37-2.59,11.53c-1.73,3.16-4.08,5.56-7.04,7.19s-6.3,2.45-9.99,2.45ZM143.66,44.44c2,0,3.71-.48,5.16-1.44,1.44-.96,2.55-2.38,3.33-4.26.78-1.88,1.16-4.17,1.16-6.89s-.39-5.05-1.16-6.93-1.89-3.31-3.33-4.27c-1.44-.96-3.16-1.44-5.16-1.44s-3.74.49-5.18,1.46-2.55,2.39-3.33,4.27c-.78,1.88-1.16,4.18-1.16,6.92s.39,5.01,1.16,6.88c.78,1.87,1.89,3.29,3.33,4.26s3.17,1.46,5.18,1.46Z"/>
          <path class="cls-6" d="M178.6,11.17v41.31h-9.79V11.17h9.79ZM184,52.48h-10.98v-8.37h10.56c2.37,0,4.37-.4,6-1.19,1.64-.79,2.87-2.1,3.7-3.91s1.25-4.2,1.25-7.18-.43-5.36-1.28-7.17c-.85-1.8-2.09-3.1-3.73-3.91-1.64-.8-3.66-1.21-6.09-1.21h-10.62v-8.37h11.17c4.2,0,7.81.83,10.84,2.48,3.03,1.65,5.37,4.02,7.01,7.11,1.64,3.09,2.47,6.77,2.47,11.06s-.82,7.98-2.45,11.08-3.97,5.47-7.01,7.11c-3.04,1.65-6.66,2.47-10.85,2.47Z"/>
          <path class="cls-6" d="M209.84,52.48V11.17h28.67v7.98h-18.88v8.54h17.38v7.82h-17.38v8.98h18.85v7.98h-28.64Z"/>
        </g>
        <g>
          <g>
            <path class="cls-4" d="M256.89,52.48V11.17h10.76l11.53,18.66c.74,1.24,1.46,2.52,2.18,3.84.71,1.32,1.42,2.79,2.12,4.39s1.41,3.46,2.13,5.54h-.91c-.11-1.52-.23-3.2-.35-5.05-.12-1.85-.23-3.65-.32-5.39s-.14-3.22-.14-4.42V11.17h10.04v41.31h-10.78l-10.56-17.1c-.94-1.57-1.8-3.06-2.56-4.46-.77-1.4-1.53-2.93-2.3-4.57s-1.67-3.58-2.7-5.79h1.14c.13,1.98.25,3.9.37,5.78.12,1.88.22,3.6.29,5.16.07,1.56.11,2.86.11,3.9v17.1h-10.04Z"/>
            <path class="cls-4" d="M300.36,52.48V11.17h28.67v7.98h-18.88v8.54h17.38v7.82h-17.38v8.98h18.85v7.98h-28.64Z"/>
            <path class="cls-4" d="M350.92,53.03c-3.44,0-6.43-.52-8.98-1.55-2.55-1.03-4.54-2.61-5.96-4.71-1.42-2.11-2.16-4.75-2.22-7.93h9.4c.09,1.33.46,2.45,1.09,3.35.64.91,1.52,1.58,2.63,2.04,1.12.45,2.43.68,3.92.68,1.35,0,2.51-.18,3.49-.55.98-.37,1.73-.89,2.26-1.55.53-.67.79-1.44.79-2.33,0-.79-.25-1.47-.73-2.02-.49-.55-1.22-1.04-2.2-1.47-.98-.42-2.23-.8-3.74-1.14l-4.38-1.03c-3.57-.81-6.37-2.14-8.4-3.99-2.03-1.85-3.05-4.32-3.05-7.43,0-2.55.69-4.79,2.08-6.71,1.39-1.92,3.29-3.41,5.7-4.48,2.41-1.06,5.18-1.59,8.3-1.59s5.97.54,8.32,1.62c2.35,1.08,4.17,2.59,5.46,4.52,1.29,1.93,1.96,4.17,2,6.72h-9.4c-.13-1.5-.74-2.66-1.83-3.49-1.09-.83-2.62-1.25-4.57-1.25-1.29,0-2.38.17-3.27.51-.89.34-1.55.81-2,1.41s-.67,1.29-.67,2.07c0,.85.25,1.57.75,2.15.5.58,1.21,1.07,2.13,1.46.92.39,2,.72,3.22,1l3.58.83c2,.43,3.78,1,5.34,1.73,1.56.73,2.88,1.6,3.96,2.62,1.08,1.02,1.9,2.19,2.47,3.52.56,1.33.85,2.82.85,4.46,0,2.61-.65,4.85-1.95,6.72-1.3,1.88-3.17,3.31-5.6,4.31s-5.36,1.5-8.77,1.5Z"/>
            <path class="cls-4" d="M370.58,19.15v-7.98h34.76v7.98h-12.5v33.32h-9.76V19.15h-12.5Z"/>
          </g>
          <g>
            <path class="cls-10" d="M256.89,52.48V11.17h10.76l11.53,18.66c.74,1.24,1.46,2.52,2.18,3.84.71,1.32,1.42,2.79,2.12,4.39s1.41,3.46,2.13,5.54h-.91c-.11-1.52-.23-3.2-.35-5.05-.12-1.85-.23-3.65-.32-5.39s-.14-3.22-.14-4.42V11.17h10.04v41.31h-10.78l-10.56-17.1c-.94-1.57-1.8-3.06-2.56-4.46-.77-1.4-1.53-2.93-2.3-4.57s-1.67-3.58-2.7-5.79h1.14c.13,1.98.25,3.9.37,5.78.12,1.88.22,3.6.29,5.16.07,1.56.11,2.86.11,3.9v17.1h-10.04Z"/>
            <path class="cls-10" d="M300.36,52.48V11.17h28.67v7.98h-18.88v8.54h17.38v7.82h-17.38v8.98h18.85v7.98h-28.64Z"/>
            <path class="cls-10" d="M350.92,53.03c-3.44,0-6.43-.52-8.98-1.55-2.55-1.03-4.54-2.61-5.96-4.71-1.42-2.11-2.16-4.75-2.22-7.93h9.4c.09,1.33.46,2.45,1.09,3.35.64.91,1.52,1.58,2.63,2.04,1.12.45,2.43.68,3.92.68,1.35,0,2.51-.18,3.49-.55.98-.37,1.73-.89,2.26-1.55.53-.67.79-1.44.79-2.33,0-.79-.25-1.47-.73-2.02-.49-.55-1.22-1.04-2.2-1.47-.98-.42-2.23-.8-3.74-1.14l-4.38-1.03c-3.57-.81-6.37-2.14-8.4-3.99-2.03-1.85-3.05-4.32-3.05-7.43,0-2.55.69-4.79,2.08-6.71,1.39-1.92,3.29-3.41,5.7-4.48,2.41-1.06,5.18-1.59,8.3-1.59s5.97.54,8.32,1.62c2.35,1.08,4.17,2.59,5.46,4.52,1.29,1.93,1.96,4.17,2,6.72h-9.4c-.13-1.5-.74-2.66-1.83-3.49-1.09-.83-2.62-1.25-4.57-1.25-1.29,0-2.38.17-3.27.51-.89.34-1.55.81-2,1.41s-.67,1.29-.67,2.07c0,.85.25,1.57.75,2.15.5.58,1.21,1.07,2.13,1.46.92.39,2,.72,3.22,1l3.58.83c2,.43,3.78,1,5.34,1.73,1.56.73,2.88,1.6,3.96,2.62,1.08,1.02,1.9,2.19,2.47,3.52.56,1.33.85,2.82.85,4.46,0,2.61-.65,4.85-1.95,6.72-1.3,1.88-3.17,3.31-5.6,4.31s-5.36,1.5-8.77,1.5Z"/>
            <path class="cls-10" d="M370.58,19.15v-7.98h34.76v7.98h-12.5v33.32h-9.76V19.15h-12.5Z"/>
          </g>
        </g>
        <g>
          <path class="cls-3" d="M88.77,76.46l-3.09-11.19h1.09l1.99,7.43c.09.34.18.68.26,1.02.08.35.16.69.24,1.05s.15.71.22,1.08h-.14c.07-.37.14-.73.22-1.08s.16-.7.24-1.05c.08-.35.17-.69.26-1.02l1.98-7.43h1.25l1.98,7.43c.09.34.18.68.26,1.02.08.35.17.69.25,1.05s.16.71.23,1.08h-.16c.08-.37.15-.73.23-1.08s.16-.7.25-1.05c.09-.35.17-.69.26-1.02l1.98-7.43h1.1l-3.1,11.19h-1.28l-2.04-7.49c-.12-.46-.25-.95-.36-1.46s-.23-1.09-.34-1.72h.23c-.11.6-.22,1.15-.33,1.66-.11.51-.24,1.01-.37,1.52l-2.04,7.49h-1.28Z"/>
          <path class="cls-3" d="M101.6,76.46v-11.19h6.53v.95h-5.47v4.13h5.12v.95h-5.12v4.2h5.57v.95h-6.64Z"/>
          <path class="cls-3" d="M110.76,76.46v-11.19h3.81c.73,0,1.34.13,1.83.38.49.26.85.6,1.1,1.04.25.44.37.94.37,1.49,0,.47-.08.87-.24,1.2-.16.33-.37.6-.64.8-.27.21-.57.35-.91.44v.09c.36.02.7.15,1.04.38.34.23.62.55.85.95s.33.89.33,1.45-.13,1.07-.38,1.51c-.25.44-.64.79-1.16,1.05-.52.26-1.18.38-1.98.38h-4.02ZM111.82,70.32h2.82c.44,0,.82-.09,1.15-.27.33-.18.59-.43.77-.75.18-.32.27-.68.27-1.08,0-.59-.19-1.06-.57-1.43-.38-.37-.95-.56-1.71-.56h-2.72v4.1ZM111.82,75.51h2.93c.85,0,1.48-.19,1.89-.57.41-.38.62-.85.62-1.43,0-.43-.1-.81-.31-1.15-.21-.34-.49-.61-.86-.81s-.8-.3-1.3-.3h-2.97v4.27Z"/>
          <path class="cls-3" d="M126.14,65.27v11.19h-1.07v-11.19h1.07ZM128.38,76.46h-2.72v-.95h2.66c.96,0,1.75-.19,2.39-.56.64-.37,1.12-.91,1.44-1.61.32-.7.48-1.53.48-2.5s-.16-1.79-.47-2.47-.78-1.21-1.39-1.58-1.37-.56-2.27-.56h-2.88v-.95h2.95c1.07,0,1.99.22,2.75.67.76.45,1.34,1.08,1.75,1.92.41.83.61,1.83.61,2.98s-.21,2.18-.62,3.02c-.41.84-1.01,1.48-1.8,1.93-.79.45-1.75.67-2.87.67Z"/>
          <path class="cls-3" d="M136.13,76.46v-11.19h6.53v.95h-5.47v4.13h5.12v.95h-5.12v4.2h5.57v.95h-6.64Z"/>
          <path class="cls-3" d="M148.38,76.46l-4.14-11.19h1.12l2.66,7.32c.14.39.3.86.49,1.42.19.56.39,1.22.62,1.97h-.23c.23-.77.44-1.43.62-1.98.18-.55.34-1.02.48-1.4l2.61-7.32h1.13l-4.11,11.19h-1.25Z"/>
          <path class="cls-3" d="M155.65,76.46v-11.19h6.53v.95h-5.47v4.13h5.12v.95h-5.12v4.2h5.57v.95h-6.64Z"/>
          <path class="cls-3" d="M164.8,76.46v-11.19h1.07v10.24h5.32v.95h-6.39Z"/>
          <path class="cls-3" d="M177.41,76.61c-.95,0-1.79-.24-2.52-.71s-1.3-1.14-1.72-1.99c-.42-.86-.62-1.87-.62-3.04s.21-2.19.62-3.05c.42-.86.99-1.53,1.72-2s1.57-.71,2.52-.71,1.78.24,2.51.71c.73.47,1.3,1.14,1.72,2s.62,1.88.62,3.05-.21,2.18-.62,3.04c-.41.86-.99,1.53-1.72,1.99-.73.47-1.57.7-2.51.7ZM177.41,75.61c.73,0,1.38-.19,1.95-.56s1.03-.92,1.36-1.63.5-1.56.5-2.55-.17-1.85-.5-2.56c-.33-.71-.79-1.25-1.36-1.63s-1.22-.56-1.95-.56-1.38.19-1.96.56c-.58.38-1.03.92-1.36,1.63-.33.71-.5,1.56-.5,2.56s.17,1.83.5,2.54.79,1.25,1.36,1.63c.58.38,1.23.57,1.96.57Z"/>
          <path class="cls-3" d="M184.72,76.46v-11.19h3.65c.79,0,1.45.15,1.99.46.54.31.94.72,1.21,1.24.27.52.41,1.11.41,1.77s-.14,1.25-.41,1.77-.68.94-1.21,1.25c-.53.31-1.2.46-1.99.46h-2.85v-.95h2.8c.58,0,1.06-.11,1.45-.33.38-.22.67-.52.86-.9s.29-.81.29-1.3-.1-.91-.29-1.29c-.19-.38-.48-.68-.86-.89-.39-.22-.87-.32-1.45-.32h-2.54v10.24h-1.07Z"/>
          <path class="cls-3" d="M194.38,76.46v-11.19h1.52l3.12,7.68c.07.17.14.36.22.58.08.22.16.46.25.71.09.25.17.5.25.75.08.25.16.49.23.71h-.27c.07-.22.15-.45.23-.69.08-.25.16-.5.25-.75.09-.26.17-.5.25-.72.08-.23.16-.43.23-.6l3.1-7.68h1.52v11.19h-1.05v-7.83c0-.27,0-.54.01-.83,0-.29.01-.58.02-.87,0-.29,0-.58,0-.86h.12c-.1.3-.2.6-.31.91-.11.31-.21.61-.32.9s-.2.56-.3.81c-.1.25-.18.47-.26.66l-2.91,7.1h-.94l-2.93-7.1c-.08-.19-.16-.4-.25-.65-.09-.25-.19-.51-.29-.8-.1-.29-.21-.59-.32-.9-.11-.31-.22-.62-.33-.94h.13c0,.26,0,.53.02.81,0,.29,0,.57.01.87,0,.29,0,.58.01.85,0,.27,0,.52,0,.75v7.1h-1.02Z"/>
          <path class="cls-3" d="M208.23,76.46v-11.19h6.53v.95h-5.47v4.13h5.12v.95h-5.12v4.2h5.57v.95h-6.64Z"/>
          <path class="cls-3" d="M217.39,76.46v-11.19h1.23l5.1,7.6c.14.21.3.46.47.74s.36.59.55.92c.19.33.38.68.57,1.04h-.17c-.03-.38-.05-.74-.07-1.09-.01-.35-.02-.68-.03-.98,0-.31,0-.58,0-.82v-7.41h1.07v11.19h-1.24l-4.76-7.08c-.19-.28-.37-.57-.56-.86-.19-.3-.39-.63-.61-1s-.48-.81-.78-1.32h.21c.02.46.03.88.04,1.28.02.4.03.76.04,1.08.01.32.02.59.02.81v7.08h-1.07Z"/>
          <path class="cls-3" d="M228.4,66.22v-.95h8.16v.95h-3.54v10.24h-1.07v-10.24h-3.55Z"/>
          <path class="cls-3" d="M246.54,76.65c-.76,0-1.42-.13-1.99-.38-.57-.25-1.01-.61-1.33-1.06-.32-.45-.5-.98-.54-1.58h1.09c.04.45.19.82.44,1.12.25.3.58.53.99.69s.86.24,1.35.24c.56,0,1.05-.09,1.48-.28.43-.19.76-.44,1.01-.78.25-.33.37-.72.37-1.16,0-.37-.1-.68-.29-.94-.19-.25-.46-.47-.81-.64-.35-.17-.76-.33-1.23-.47l-1.32-.38c-.89-.26-1.58-.63-2.06-1.1-.48-.47-.72-1.06-.72-1.76,0-.61.16-1.14.48-1.6.32-.46.76-.82,1.32-1.08.56-.26,1.18-.39,1.87-.39s1.33.13,1.87.39c.54.26.96.61,1.28,1.06.31.45.48.95.51,1.52h-1.04c-.06-.62-.34-1.11-.82-1.47-.48-.36-1.09-.54-1.82-.54-.51,0-.96.09-1.35.27s-.7.42-.92.73c-.22.31-.33.66-.33,1.06s.11.71.33.97.5.47.84.63c.34.17.69.3,1.04.41l1.17.34c.36.1.72.23,1.08.38.36.16.69.35.98.58.3.23.53.52.71.85s.27.73.27,1.19c0,.6-.16,1.14-.47,1.62-.31.48-.76.86-1.34,1.13-.58.27-1.28.41-2.09.41Z"/>
          <path class="cls-3" d="M257.25,76.61c-.95,0-1.79-.24-2.52-.71s-1.3-1.14-1.72-1.99c-.42-.86-.62-1.87-.62-3.04s.21-2.19.62-3.05c.42-.86.99-1.53,1.72-2s1.57-.71,2.52-.71,1.78.24,2.51.71c.73.47,1.3,1.14,1.72,2s.62,1.88.62,3.05-.21,2.18-.62,3.04c-.41.86-.99,1.53-1.72,1.99-.73.47-1.57.7-2.51.7ZM257.25,75.61c.73,0,1.38-.19,1.95-.56s1.03-.92,1.36-1.63.5-1.56.5-2.55-.17-1.85-.5-2.56c-.33-.71-.79-1.25-1.36-1.63s-1.22-.56-1.95-.56-1.38.19-1.96.56c-.58.38-1.03.92-1.36,1.63-.33.71-.5,1.56-.5,2.56s.17,1.83.5,2.54.79,1.25,1.36,1.63c.58.38,1.23.57,1.96.57Z"/>
          <path class="cls-3" d="M264.56,76.46v-11.19h1.07v10.24h5.32v.95h-6.39Z"/>
          <path class="cls-3" d="M277.43,76.63c-.84,0-1.58-.17-2.22-.51-.64-.34-1.14-.81-1.5-1.42-.36-.6-.54-1.28-.54-2.04v-7.39h1.07v7.32c0,.59.13,1.11.4,1.57.27.46.64.82,1.12,1.09.48.27,1.04.4,1.68.4s1.2-.13,1.68-.4c.48-.27.85-.63,1.11-1.09.26-.46.39-.98.39-1.57v-7.32h1.07v7.39c0,.76-.18,1.44-.54,2.04-.36.6-.86,1.07-1.49,1.42-.64.34-1.38.51-2.22.51Z"/>
          <path class="cls-3" d="M283.89,66.22v-.95h8.16v.95h-3.54v10.24h-1.07v-10.24h-3.55Z"/>
          <path class="cls-3" d="M295.41,65.27v11.19h-1.07v-11.19h1.07Z"/>
          <path class="cls-3" d="M302.74,76.61c-.95,0-1.79-.24-2.52-.71s-1.3-1.14-1.72-1.99c-.42-.86-.62-1.87-.62-3.04s.21-2.19.62-3.05c.42-.86.99-1.53,1.72-2s1.57-.71,2.52-.71,1.78.24,2.51.71c.73.47,1.3,1.14,1.72,2s.62,1.88.62,3.05-.21,2.18-.62,3.04c-.41.86-.99,1.53-1.72,1.99-.73.47-1.57.7-2.51.7ZM302.74,75.61c.73,0,1.38-.19,1.95-.56s1.03-.92,1.36-1.63.5-1.56.5-2.55-.17-1.85-.5-2.56c-.33-.71-.79-1.25-1.36-1.63s-1.22-.56-1.95-.56-1.38.19-1.96.56c-.58.38-1.03.92-1.36,1.63-.33.71-.5,1.56-.5,2.56s.17,1.83.5,2.54.79,1.25,1.36,1.63c.58.38,1.23.57,1.96.57Z"/>
          <path class="cls-3" d="M310.05,76.46v-11.19h1.23l5.1,7.6c.14.21.3.46.47.74.18.28.36.59.55.92.19.33.38.68.58,1.04h-.17c-.03-.38-.05-.74-.07-1.09-.02-.35-.03-.68-.03-.98,0-.31,0-.58,0-.82v-7.41h1.07v11.19h-1.24l-4.76-7.08c-.18-.28-.37-.57-.56-.86-.19-.3-.39-.63-.61-1-.22-.37-.48-.81-.78-1.32h.21c.01.46.03.88.04,1.28.01.4.03.76.04,1.08,0,.32.01.59.01.81v7.08h-1.07Z"/>
          <path class="cls-3" d="M327.12,65.27v11.19h-1.07v-11.19h1.07Z"/>
          <path class="cls-3" d="M330.08,76.46v-11.19h1.23l5.1,7.6c.14.21.3.46.47.74.18.28.36.59.55.92.19.33.38.68.58,1.04h-.17c-.03-.38-.05-.74-.07-1.09-.02-.35-.03-.68-.03-.98,0-.31,0-.58,0-.82v-7.41h1.07v11.19h-1.24l-4.76-7.08c-.18-.28-.37-.57-.56-.86-.19-.3-.39-.63-.61-1-.22-.37-.48-.81-.78-1.32h.21c.01.46.03.88.04,1.28.01.4.03.76.04,1.08,0,.32.01.59.01.81v7.08h-1.07Z"/>
          <path class="cls-3" d="M350.49,76.61c-.98,0-1.84-.24-2.57-.71s-1.3-1.14-1.71-2-.61-1.87-.61-3.03.2-2.19.61-3.05.98-1.52,1.7-1.99c.73-.47,1.56-.71,2.51-.71.61,0,1.17.1,1.68.29.51.19.96.46,1.35.8.39.34.71.73.96,1.17s.42.91.5,1.4h-1.1c-.1-.37-.25-.71-.44-1.03-.19-.32-.43-.6-.72-.84-.29-.25-.62-.44-.99-.57-.37-.14-.78-.21-1.24-.21-.72,0-1.37.19-1.94.56s-1.03.92-1.36,1.63c-.33.71-.5,1.56-.5,2.56s.17,1.83.5,2.54c.33.71.79,1.25,1.37,1.63.58.38,1.25.57,2,.57.69,0,1.3-.15,1.81-.45.52-.3.92-.73,1.21-1.29.29-.56.43-1.21.43-1.98l.33.08h-3.56v-.95h4.27v.92c0,.95-.19,1.77-.57,2.46-.38.7-.91,1.24-1.59,1.62-.68.38-1.46.57-2.34.57Z"/>
          <path class="cls-3" d="M357.53,76.46v-11.19h6.53v.95h-5.47v4.13h5.12v.95h-5.12v4.2h5.57v.95h-6.64Z"/>
          <path class="cls-3" d="M366.68,76.46v-11.19h1.23l5.1,7.6c.14.21.3.46.47.74.18.28.36.59.55.92.19.33.38.68.58,1.04h-.17c-.03-.38-.05-.74-.07-1.09-.02-.35-.03-.68-.03-.98,0-.31,0-.58,0-.82v-7.41h1.07v11.19h-1.24l-4.76-7.08c-.18-.28-.37-.57-.56-.86-.19-.3-.39-.63-.61-1-.22-.37-.48-.81-.78-1.32h.21c.01.46.03.88.04,1.28.01.4.03.76.04,1.08,0,.32.01.59.01.81v7.08h-1.07Z"/>
          <path class="cls-3" d="M378.36,76.46v-11.19h6.53v.95h-5.47v4.13h5.12v.95h-5.12v4.2h5.57v.95h-6.64Z"/>
          <path class="cls-3" d="M390.61,76.46l-4.14-11.19h1.12l2.66,7.32c.14.39.3.86.49,1.42.19.56.39,1.22.62,1.97h-.23c.23-.77.44-1.43.62-1.98s.34-1.02.48-1.4l2.61-7.32h1.13l-4.11,11.19h-1.25Z"/>
          <path class="cls-3" d="M395.77,76.46l4.1-11.19h1.26l4.14,11.19h-1.13l-2.66-7.32c-.15-.41-.31-.88-.49-1.42s-.38-1.2-.61-1.96h.22c-.23.77-.44,1.43-.62,1.98-.18.55-.34,1.02-.47,1.4l-2.61,7.32h-1.13ZM397.68,73.13v-.95h5.69v.95h-5.69Z"/>
        </g>
      </g>
    </g>
  </g>
</svg>